<svg width="18" height="18" viewBox="0 0 18 18" fill="none" xmlns="http://www.w3.org/2000/svg">
<path d="M6 4.5V3.75C6 2.50736 7.00736 1.5 8.25 1.5H9.75C10.9926 1.5 12 2.50736 12 3.75V4.5M1.5 7.76061C1.5 7.76061 3.83853 9.31833 7.48325 9.68315M16.5 7.76061C16.5 7.76061 14.1615 9.31833 10.5167 9.68315M4.5 16.5H13.5C15.1569 16.5 16.5 15.1569 16.5 13.5V7.5C16.5 5.84315 15.1569 4.5 13.5 4.5H4.5C2.84315 4.5 1.5 5.84315 1.5 7.5V13.5C1.5 15.1569 2.84315 16.5 4.5 16.5Z" stroke="#0C383F" stroke-linecap="round"/>
<path d="M10.5 9.12V9.87C10.5 9.8775 10.5 9.8775 10.5 9.885C10.5 10.7025 10.4925 11.37 9 11.37C7.515 11.37 7.5 10.71 7.5 9.89249V9.12C7.5 8.37 7.5 8.37 8.25 8.37H9.75C10.5 8.37 10.5 8.37 10.5 9.12Z" stroke="#28303F" stroke-width="1.5" stroke-miterlimit="10" stroke-linecap="round" stroke-linejoin="round"/>
</svg>
