<svg width="16" height="16" viewBox="0 0 16 16" fill="none" xmlns="http://www.w3.org/2000/svg">
<path fill-rule="evenodd" clip-rule="evenodd" d="M13.9702 12.5401C12.6002 14.3389 10.4357 15.5 8 15.5C7.28592 15.5 6.59514 15.4002 5.94087 15.2138C6.93962 14.9187 7.66924 13.9959 7.66924 12.9017C7.66924 11.5692 6.58725 10.4909 5.25484 10.4909C4.5417 10.4909 3.96544 9.91421 3.96544 9.2051C3.96544 7.87262 2.88345 6.79429 1.55104 6.79429H0.596404C1.17315 3.22538 4.2683 0.5 8 0.5C9.29443 0.5 10.5123 0.827924 11.575 1.40523C11.3219 1.78635 11.174 2.2439 11.174 2.73601C11.174 3.44512 10.5977 4.02182 9.88459 4.02182C8.55219 4.02182 7.47019 5.10015 7.47019 6.43264C7.47019 7.76512 8.55219 8.84345 9.88459 8.84345C10.5977 8.84345 11.174 9.42015 11.174 10.1293C11.174 11.4617 12.256 12.5401 13.5884 12.5401H13.9702ZM14.6792 11.4151H13.5884C12.8752 11.4151 12.299 10.8384 12.299 10.1293C12.299 8.79678 11.217 7.71845 9.88459 7.71845C9.17145 7.71845 8.59519 7.14174 8.59519 6.43264C8.59519 5.72353 9.17145 5.14682 9.88459 5.14682C11.217 5.14682 12.299 4.06849 12.299 2.73601C12.299 2.46899 12.3804 2.22085 12.5206 2.01494C14.3305 3.38417 15.5 5.55551 15.5 8C15.5 9.22997 15.2039 10.3908 14.6792 11.4151ZM0.500425 7.91929C0.500142 7.94616 0.5 7.97306 0.5 8C0.5 10.3561 1.58639 12.4584 3.28555 13.8333C3.43893 13.9574 3.59729 14.0756 3.76031 14.1875L5.25484 14.1875C5.96799 14.1875 6.54424 13.6108 6.54424 12.9017C6.54424 12.1926 5.96799 11.6159 5.25484 11.6159C3.92243 11.6159 2.84044 10.5376 2.84044 9.2051C2.84044 8.496 2.26419 7.91929 1.55104 7.91929H0.500425Z" fill="#28303F"/>
</svg>
