<svg width="16" height="14" viewBox="0 0 16 14" fill="none" xmlns="http://www.w3.org/2000/svg">
<path d="M8.66667 1.66659H0.666667C0.489856 1.66659 0.320286 1.59635 0.195262 1.47132C0.0702379 1.3463 0 1.17673 0 0.999919C0 0.823108 0.0702379 0.653538 0.195262 0.528514C0.320286 0.40349 0.489856 0.333252 0.666667 0.333252H8.66667C8.84348 0.333252 9.01305 0.40349 9.13807 0.528514C9.2631 0.653538 9.33333 0.823108 9.33333 0.999919C9.33333 1.17673 9.2631 1.3463 9.13807 1.47132C9.01305 1.59635 8.84348 1.66659 8.66667 1.66659Z" fill="black"/>
<path d="M7.33333 5.66659H0.666667C0.489856 5.66659 0.320286 5.59635 0.195262 5.47132C0.0702379 5.3463 0 5.17673 0 4.99992C0 4.82311 0.0702379 4.65354 0.195262 4.52851C0.320286 4.40349 0.489856 4.33325 0.666667 4.33325H7.33333C7.51014 4.33325 7.67971 4.40349 7.80474 4.52851C7.92976 4.65354 8 4.82311 8 4.99992C8 5.17673 7.92976 5.3463 7.80474 5.47132C7.67971 5.59635 7.51014 5.66659 7.33333 5.66659Z" fill="black"/>
<path d="M6 9.66658H0.666667C0.489856 9.66658 0.320286 9.59635 0.195262 9.47132C0.0702379 9.3463 0 9.17673 0 8.99992C0 8.82311 0.0702379 8.65354 0.195262 8.52851C0.320286 8.40349 0.489856 8.33325 0.666667 8.33325H6C6.17681 8.33325 6.34638 8.40349 6.4714 8.52851C6.59643 8.65354 6.66667 8.82311 6.66667 8.99992C6.66667 9.17673 6.59643 9.3463 6.4714 9.47132C6.34638 9.59635 6.17681 9.66658 6 9.66658Z" fill="black"/>
<path d="M4.66667 13.6666H0.666667C0.489856 13.6666 0.320286 13.5963 0.195262 13.4713C0.0702379 13.3463 0 13.1767 0 12.9999C0 12.8231 0.0702379 12.6535 0.195262 12.5285C0.320286 12.4035 0.489856 12.3333 0.666667 12.3333H4.66667C4.84348 12.3333 5.01305 12.4035 5.13807 12.5285C5.26309 12.6535 5.33333 12.8231 5.33333 12.9999C5.33333 13.1767 5.26309 13.3463 5.13807 13.4713C5.01305 13.5963 4.84348 13.6666 4.66667 13.6666Z" fill="black"/>
<path d="M13.3327 12.3333C13.1559 12.3333 12.9863 12.263 12.8613 12.138C12.7363 12.013 12.666 11.8434 12.666 11.6666V0.999919C12.666 0.823108 12.7363 0.653538 12.8613 0.528514C12.9863 0.40349 13.1559 0.333252 13.3327 0.333252C13.5095 0.333252 13.6791 0.40349 13.8041 0.528514C13.9291 0.653538 13.9993 0.823108 13.9993 0.999919V11.6666C13.9993 11.8434 13.9291 12.013 13.8041 12.138C13.6791 12.263 13.5095 12.3333 13.3327 12.3333Z" fill="black"/>
<path d="M13.3335 13.6666C13.2457 13.6671 13.1587 13.6503 13.0775 13.6171C12.9963 13.584 12.9224 13.5351 12.8601 13.4733L10.8601 11.4733C10.7346 11.3478 10.6641 11.1775 10.6641 11C10.6641 10.8224 10.7346 10.6522 10.8601 10.5266C10.9857 10.4011 11.1559 10.3306 11.3335 10.3306C11.511 10.3306 11.6813 10.4011 11.8068 10.5266L13.3335 12.06L14.8601 10.5266C14.9857 10.4011 15.1559 10.3306 15.3335 10.3306C15.511 10.3306 15.6813 10.4011 15.8068 10.5266C15.9323 10.6522 16.0029 10.8224 16.0029 11C16.0029 11.1775 15.9323 11.3478 15.8068 11.4733L13.8068 13.4733C13.7445 13.5351 13.6706 13.584 13.5894 13.6171C13.5082 13.6503 13.4212 13.6671 13.3335 13.6666Z" fill="black"/>
</svg>
