<svg width="14" height="16" viewBox="0 0 14 16" fill="none" xmlns="http://www.w3.org/2000/svg">
<path fill-rule="evenodd" clip-rule="evenodd" d="M9.58183 10.9271C10.9765 9.49748 12.25 7.35613 12.25 5.64286C12.25 2.80254 9.8995 0.5 7 0.5C4.10051 0.5 1.75 2.80254 1.75 5.64286C1.75 7.35613 3.02347 9.49748 4.41817 10.9271C5.33565 11.8675 6.3056 12.5 7 12.5C7.6944 12.5 8.66435 11.8675 9.58183 10.9271ZM7 7.25C7.82843 7.25 8.5 6.57843 8.5 5.75C8.5 4.92157 7.82843 4.25 7 4.25C6.17157 4.25 5.5 4.92157 5.5 5.75C5.5 6.57843 6.17157 7.25 7 7.25Z" fill="#28303F"/>
<path fill-rule="evenodd" clip-rule="evenodd" d="M3.29156 11.3697C1.45929 11.772 0.25 12.4639 0.25 13.25C0.25 14.4926 3.27208 15.5 7 15.5C10.7279 15.5 13.75 14.4926 13.75 13.25C13.75 12.4639 12.5407 11.772 10.7084 11.3697C10.6023 11.4875 10.4951 11.602 10.3871 11.7127C9.88287 12.2295 9.34108 12.6864 8.8007 13.0219C8.2856 13.3418 7.65474 13.625 7 13.625C6.34526 13.625 5.7144 13.3418 5.1993 13.0219C4.65892 12.6864 4.11713 12.2295 3.61291 11.7127C3.50495 11.602 3.39769 11.4875 3.29156 11.3697Z" fill="#28303F"/>
</svg>
