<svg width="16" height="16" viewBox="0 0 16 16" fill="none" xmlns="http://www.w3.org/2000/svg">
<path fill-rule="evenodd" clip-rule="evenodd" d="M6.58327 2.42268C6.07734 3.81399 5.74975 5.78576 5.74975 8C5.74975 8.22525 5.75314 8.448 5.75976 8.66788C6.47377 8.72137 7.2244 8.75 7.99974 8.75C8.77509 8.75 9.52572 8.72137 10.2397 8.66788C10.2464 8.448 10.2497 8.22525 10.2497 8C10.2497 5.78576 9.92215 3.81399 9.41622 2.42268C9.16213 1.72394 8.87731 1.21125 8.59877 0.887268C8.31814 0.560851 8.11313 0.5 7.99975 0.5C7.88636 0.5 7.68136 0.560851 7.40072 0.887268C7.12219 1.21125 6.83736 1.72394 6.58327 2.42268ZM10.1402 10.1788C9.45112 10.2254 8.7346 10.25 7.99974 10.25C7.26489 10.25 6.54837 10.2254 5.8593 10.1788C5.9954 11.4983 6.25083 12.6631 6.58327 13.5773C6.83736 14.2761 7.12219 14.7887 7.40072 15.1127C7.68136 15.4391 7.88636 15.5 7.99975 15.5C8.11313 15.5 8.31814 15.4391 8.59877 15.1127C8.87731 14.7887 9.16213 14.2761 9.41622 13.5773C9.74866 12.6631 10.0041 11.4983 10.1402 10.1788ZM4.25525 8.5119C4.25159 8.34238 4.24975 8.1717 4.24975 8C4.24975 5.65789 4.59372 3.50466 5.17358 1.91006C5.3063 1.54507 5.45441 1.20093 5.61836 0.885962C2.77769 1.83645 0.694722 4.44073 0.512695 7.55557C1.15378 7.85705 2.06921 8.13413 3.20917 8.34559C3.5425 8.40742 3.89188 8.46308 4.25525 8.5119ZM0.596834 9.20993C1.27778 9.45591 2.07117 9.66008 2.93558 9.82043C3.38062 9.90299 3.84965 9.97485 4.33863 10.035C4.47586 11.5766 4.76663 12.9708 5.17358 14.0899C5.3063 14.4549 5.45441 14.7991 5.61836 15.114C3.01381 14.2426 1.04624 11.9808 0.596834 9.20993ZM11.6609 10.035C12.1498 9.97485 12.6189 9.90298 13.0639 9.82043C13.9283 9.66008 14.7217 9.45591 15.4027 9.20993C14.9533 11.9808 12.9857 14.2426 10.3811 15.114C10.5451 14.7991 10.6932 14.4549 10.8259 14.0899C11.2329 12.9708 11.5236 11.5766 11.6609 10.035ZM15.4868 7.55557C14.8457 7.85705 13.9303 8.13413 12.7903 8.34559C12.457 8.40742 12.1076 8.46308 11.7442 8.5119C11.7479 8.34238 11.7497 8.1717 11.7497 8C11.7497 5.65789 11.4058 3.50466 10.8259 1.91006C10.6932 1.54507 10.5451 1.20093 10.3811 0.885962C13.2218 1.83645 15.3048 4.44073 15.4868 7.55557Z" fill="#28303F"/>
</svg>
