<svg width="14" height="16" viewBox="0 0 14 16" fill="none" xmlns="http://www.w3.org/2000/svg">
    <path
        d="M2.5 15C2.22386 15 2 15.2239 2 15.5C2 15.7761 2.22386 16 2.5 16V15ZM11.5 16C11.7761 16 12 15.7761 12 15.5C12 15.2239 11.7761 15 11.5 15V16ZM12.125 6.125C12.125 7.42628 11.2967 9.09562 10.1643 10.4748C9.60658 11.1541 8.99691 11.7356 8.42093 12.1426C7.82938 12.5606 7.33648 12.75 7 12.75V13.75C7.6479 13.75 8.35031 13.417 8.99802 12.9593C9.66129 12.4906 10.3348 11.8431 10.9372 11.1093C12.1252 9.66239 13.125 7.76924 13.125 6.125H12.125ZM7 12.75C6.67362 12.75 6.18522 12.5518 5.59072 12.1055C5.01388 11.6724 4.4028 11.0551 3.84333 10.3385C2.70773 8.88402 1.875 7.13955 1.875 5.83333H0.875C0.875 7.47263 1.87039 9.4365 3.05511 10.9539C3.65579 11.7233 4.32792 12.4079 4.99033 12.9052C5.63509 13.3893 6.342 13.75 7 13.75V12.75ZM1.875 5.83333C1.875 3.07039 4.33022 1 7 1V0C3.87079 0 0.875 2.42961 0.875 5.83333H1.875ZM7 1C9.65138 1 12.125 3.05336 12.125 6.125H13.125C13.125 2.44664 10.1476 0 7 0V1ZM8.75 5.75C8.75 6.7165 7.9665 7.5 7 7.5V8.5C8.51878 8.5 9.75 7.26878 9.75 5.75H8.75ZM7 7.5C6.0335 7.5 5.25 6.7165 5.25 5.75H4.25C4.25 7.26878 5.48122 8.5 7 8.5V7.5ZM5.25 5.75C5.25 4.7835 6.0335 4 7 4V3C5.48122 3 4.25 4.23122 4.25 5.75H5.25ZM7 4C7.9665 4 8.75 4.7835 8.75 5.75H9.75C9.75 4.23122 8.51878 3 7 3V4ZM2.5 16H11.5V15H2.5V16Z"
        fill="#0C383F" />
</svg>