<svg width="18" height="18" viewBox="0 0 18 18" fill="none" xmlns="http://www.w3.org/2000/svg">
<path fill-rule="evenodd" clip-rule="evenodd" d="M9 2.0625C5.16852 2.0625 2.0625 5.16852 2.0625 9C2.0625 12.8315 5.16852 15.9375 9 15.9375C11.7231 15.9375 14.0808 14.3687 15.2167 12.083C15.3549 11.8048 15.6925 11.6914 15.9707 11.8296C16.2489 11.9679 16.3624 12.3055 16.2241 12.5837C14.9055 15.237 12.1665 17.0625 9 17.0625C4.5472 17.0625 0.9375 13.4528 0.9375 9C0.9375 4.5472 4.5472 0.9375 9 0.9375C13.4528 0.9375 17.0625 4.5472 17.0625 9C17.0625 9.18081 16.9756 9.3506 16.8289 9.45632C16.6822 9.56205 16.4937 9.59081 16.3221 9.53363L14.0721 8.78363C13.7774 8.68539 13.6181 8.36684 13.7164 8.07212C13.8146 7.7774 14.1332 7.61813 14.4279 7.71637L15.8924 8.20454C15.4978 4.74769 12.5625 2.0625 9 2.0625Z" fill="#1B983F"/>
</svg>
